<svg width="90" height="18" viewBox="0 0 90 18" fill="#000" xmlns="http://www.w3.org/2000/svg">
<g clip-path="url(#clip0)">
<path d="M34.1297 5.9651C34.0774 5.40696 33.8335 4.98835 33.4154 4.6744C32.9972 4.36045 32.4397 4.22091 31.7254 4.22091C31.2376 4.22091 30.8369 4.29068 30.5059 4.43021C30.1749 4.56975 29.9136 4.74417 29.7393 4.98835C29.5651 5.23254 29.478 5.49417 29.478 5.79068C29.4606 6.03486 29.5303 6.26161 29.6348 6.45347C29.7568 6.64533 29.9136 6.80231 30.1226 6.94184C30.3317 7.08138 30.5582 7.18603 30.8369 7.29068C31.0982 7.39533 31.3944 7.4651 31.708 7.53487L32.9624 7.83138C33.5722 7.97091 34.1297 8.14533 34.6523 8.37207C35.1575 8.59882 35.6105 8.87789 35.9764 9.20928C36.3597 9.54068 36.6384 9.94184 36.8475 10.3953C37.0565 10.8488 37.1611 11.3721 37.1611 11.9477C37.1611 12.8023 36.9346 13.5523 36.499 14.1802C36.0635 14.8081 35.4537 15.2965 34.6349 15.6453C33.8161 15.9942 32.8404 16.1686 31.708 16.1686C30.5756 16.1686 29.5825 15.9942 28.7463 15.6453C27.91 15.2965 27.248 14.7732 26.7776 14.093C26.3072 13.4128 26.0633 12.5581 26.0459 11.5465H28.9205C28.9554 12.0174 29.0947 12.4186 29.3212 12.7151C29.5651 13.0291 29.8787 13.2558 30.2794 13.4302C30.6801 13.5872 31.1331 13.6744 31.6557 13.6744C32.161 13.6744 32.5965 13.6046 32.9624 13.4477C33.3282 13.3081 33.6244 13.0988 33.8335 12.8372C34.0425 12.5756 34.1471 12.2791 34.1471 11.9302C34.1471 11.6163 34.06 11.3546 33.8683 11.1279C33.6767 10.9186 33.4154 10.7267 33.0669 10.5872C32.7185 10.4477 32.2829 10.2907 31.7603 10.1686L30.2271 9.78487C29.0425 9.48835 28.1017 9.05231 27.4222 8.4244C26.7428 7.81393 26.3943 6.99417 26.3943 5.94766C26.3943 5.093 26.6208 4.36045 27.0738 3.7151C27.5268 3.08719 28.1714 2.58138 28.9728 2.23254C29.7742 1.8837 30.6975 1.69184 31.708 1.69184C32.7533 1.69184 33.6593 1.86626 34.4432 2.23254C35.2272 2.58138 35.837 3.08719 36.2551 3.7151C36.6907 4.343 36.9172 5.093 36.9346 5.93021H34.1297V5.9651Z"></path>
<path d="M56.9877 4.08135C56.5522 4.08135 56.1863 3.94181 55.8727 3.6453C55.5591 3.34879 55.4023 2.99995 55.4023 2.59879C55.4023 2.19763 55.5591 1.84879 55.8727 1.55228C56.1863 1.25576 56.5522 1.11623 56.9877 1.11623C57.4233 1.11623 57.8066 1.25576 58.1027 1.55228C58.4163 1.84879 58.5731 2.19763 58.5731 2.59879C58.5731 2.99995 58.4163 3.34879 58.1027 3.6453C57.7891 3.92437 57.4233 4.08135 56.9877 4.08135ZM55.5069 15.9767V5.42437H58.4337V15.9593H55.5069V15.9767Z"></path>
<path d="M66.3601 5.42439V7.62206H60.0186V5.42439H66.3601Z"></path>
<path d="M72.8939 16.1686C71.8137 16.1686 70.8903 15.9419 70.1064 15.4709C69.3398 15.0174 68.73 14.3721 68.3293 13.5523C67.9112 12.7326 67.7021 11.7907 67.7021 10.7268C67.7021 9.64536 67.9112 8.7035 68.3293 7.88373C68.7475 7.06396 69.3398 6.43606 70.1064 5.96513C70.8729 5.51164 71.7963 5.26745 72.859 5.26745C73.7824 5.26745 74.5838 5.44187 75.2632 5.77327C75.9601 6.10466 76.5002 6.57559 76.9009 7.18606C77.3016 7.79652 77.5281 8.4942 77.5629 9.31396H74.8103C74.7406 8.79071 74.5315 8.3721 74.2005 8.04071C73.8695 7.70931 73.4339 7.55234 72.8939 7.55234C72.4409 7.55234 72.0402 7.67443 71.7092 7.91861C71.3782 8.1628 71.1168 8.51164 70.9252 8.98257C70.7335 9.4535 70.6464 10.0116 70.6464 10.6744C70.6464 11.3547 70.7335 11.9128 70.9252 12.3837C71.1168 12.8547 71.3782 13.2209 71.7092 13.4651C72.0402 13.7093 72.4409 13.8314 72.8939 13.8314C73.2249 13.8314 73.521 13.7616 73.7998 13.6221C74.0611 13.4826 74.2876 13.2907 74.4618 13.0291C74.636 12.7674 74.758 12.4535 74.8103 12.0872H77.5629C77.5106 12.8895 77.3016 13.6047 76.9009 14.2151C76.5002 14.8256 75.9775 15.2965 75.2806 15.6454C74.5838 15.9942 73.8346 16.1686 72.8939 16.1686Z"></path>
<path d="M82.4054 9.87202V15.9592H79.4785V1.91853H82.3183V7.29062H82.4402C82.6841 6.66271 83.0674 6.17434 83.5901 5.82551C84.1127 5.47667 84.7922 5.30225 85.5762 5.30225C86.3079 5.30225 86.9525 5.45923 87.4926 5.77318C88.0327 6.08713 88.4682 6.54062 88.7644 7.13365C89.0605 7.72667 89.2173 8.44178 89.2173 9.26155V15.9767H86.2905V9.78481C86.2905 9.13946 86.1337 8.63364 85.8026 8.26737C85.4716 7.90109 85.0012 7.72667 84.4089 7.72667C84.0082 7.72667 83.6598 7.81388 83.3636 7.9883C83.0674 8.16271 82.8235 8.4069 82.6493 8.72085C82.4751 9.03481 82.4054 9.41853 82.4054 9.87202Z"></path>
<path d="M7.93884 8.98256C7.93884 8.98256 10.4999 4.51744 10.796 3.99419C11.7194 2.38954 12.8344 2.37209 13.7577 3.99419C14.1062 4.62209 17.6951 10.8314 17.7125 10.8314C19.3676 9.55814 19.507 7.97093 18.0784 5.51163C18.0784 5.51163 16.8763 3.41861 16.2491 2.37209C15.2734 0.715116 13.8971 0 12.2943 0C10.6566 0 9.24548 0.715116 8.28728 2.37209L4.47189 8.98256H7.93884Z"></path>
<path d="M10.5516 7.46515C10.5516 7.46515 13.1126 11.9303 13.4262 12.4535C14.3496 14.0582 13.7921 15.0349 11.9453 15.0175C11.231 15.0175 4.05323 14.9826 4.05323 15C4.31456 17.0582 5.6212 18 8.44354 18C8.44354 18 10.8478 18.0175 12.0847 18C14.0185 17.9826 15.3252 17.1628 16.1266 15.7675C16.9628 14.3372 17.0499 12.7675 16.0917 11.0931L12.3112 4.46515L10.5516 7.46515Z"></path>
<path d="M10.5518 10.5174C10.5518 10.5174 5.39488 10.5174 4.80254 10.5174C2.95582 10.5174 2.3809 9.55813 3.32168 7.95348C3.70496 7.32557 7.29387 1.11627 7.29387 1.11627C5.37746 0.313948 3.91402 0.994181 2.50285 3.43604C2.50285 3.43604 1.28332 5.51162 0.690975 6.59302C-0.249806 8.26744 -0.19754 9.81976 0.603866 11.2151C1.42269 12.6453 2.74676 13.5174 4.66316 13.5174L12.2939 13.5523L10.5518 10.5174Z"></path>
<path d="M51.0117 5.47674L49.4089 12.4884C49.3741 12.4884 49.3566 12.4884 49.3218 12.4884L47.9977 7.11627L47.9803 7.06394C47.7887 6.22674 47.0395 5.59883 46.151 5.59883C45.2799 5.59883 44.5656 6.17441 44.3391 6.97674L44.3043 7.13371L43.0151 12.5232H42.9628C42.9454 12.5232 42.928 12.5232 42.928 12.5232L41.2903 5.47674H38.3809L40.8025 14.5639L40.8548 14.7209C41.0987 15.436 41.8478 15.9593 42.7363 15.9593C43.6074 15.9593 44.3391 15.4535 44.6005 14.7558C44.6353 14.686 44.6527 14.5988 44.6702 14.5291L46.0813 9.36627H46.2033L47.6144 14.5465L47.6493 14.6686C47.8758 15.4186 48.6423 15.9593 49.5483 15.9593C50.4542 15.9593 51.2208 15.4012 51.4473 14.6512L51.4821 14.5465L53.9386 5.45929H51.0117V5.47674Z"></path>
<path d="M61.4648 5.38945C61.6739 3.22666 62.667 2.02317 64.3743 2.02317V5.38945V5.51154V12.7325C64.3743 12.9941 64.4092 13.2034 64.4963 13.3604C64.5834 13.5174 64.6879 13.622 64.8447 13.6743C65.0015 13.7267 65.1583 13.7615 65.3674 13.7615C65.5067 13.7615 65.6461 13.7441 65.7855 13.7267C65.9249 13.7092 66.0294 13.6743 66.0991 13.6743L66.552 15.8546C66.4127 15.9069 66.2036 15.9592 65.9423 16.0115C65.6809 16.0813 65.3499 16.1162 64.9841 16.1162C64.2872 16.1511 63.66 16.0464 63.1373 15.8371C62.6147 15.6278 62.1966 15.2964 61.9004 14.8429C61.6042 14.3894 61.4648 13.8139 61.4648 13.1336V5.52898V5.38945Z"></path>
</g>
<defs>
<clipPath id="clip0">
<rect width="89.2174" height="18" fill="black"></rect>
</clipPath>
</defs>
</svg>